# xmcd
#
# Track frame offsets:
#	150
#	15015
#	29156
#	43579
#	58781
#	71017
#	85657
#	96863
#	111643
#	123380
#	137456
#	148578
#	161577
#	174397
#
# Disc length: 2507 seconds
#
# Revision: 0
# Processed by: cddbd v1.5.2PL0 Copyright (c) Steve Scherf et al.
# Submitted via: EasyCDDAExtractor 2011.0.0.0
#
DISCID=bd09c90e
DTITLE=우성창 - 나훈아 색소폰골드
DYEAR=2014
DGENRE=Blues
TTITLE0=영영
TTITLE1=머나먼 고향
TTITLE2=갈무리
TTITLE3=어매
TTITLE4=잡초
TTITLE5=해변의 여인
TTITLE6=무시로
TTITLE7=사랑
TTITLE8=울긴 왜 울어
TTITLE9=대동강 편지
TTITLE10=사랑은 눈물의 씨앗
TTITLE11=강촌에 살고 싶네
TTITLE12=물레방아 도는데
TTITLE13=너와 나의 고향
EXTD=
EXTT0=
EXTT1=
EXTT2=
EXTT3=
EXTT4=
EXTT5=
EXTT6=
EXTT7=
EXTT8=
EXTT9=
EXTT10=
EXTT11=
EXTT12=
EXTT13=
PLAYORDER=
